<?xml version="1.0" encoding="UTF-8" standalone="no"?>
<!DOCTYPE svg PUBLIC "-//W3C//DTD SVG 1.0//EN" "http://www.w3.org/TR/2001/PR-SVG-20010719/DTD/svg10.dtd">
<svg width="62cm" height="35cm" viewBox="358 -353 1224 699" xmlns="http://www.w3.org/2000/svg" xmlns:xlink="http://www.w3.org/1999/xlink">
  <g>
    <rect style="fill: #ffffff" x="663" y="-219" width="248.7" height="28"/>
    <rect style="fill: none; fill-opacity:0; stroke-width: 2; stroke: #000000" x="663" y="-219" width="248.7" height="28"/>
    <text font-size="16" style="fill: #000000;text-anchor:middle;font-family:sans-serif;font-style:normal;font-weight:700" x="787.35" y="-200">ScriptRun</text>
    <rect style="fill: #ffffff" x="663" y="-191" width="248.7" height="180"/>
    <rect style="fill: none; fill-opacity:0; stroke-width: 2; stroke: #000000" x="663" y="-191" width="248.7" height="180"/>
    <text font-size="12.8" style="fill: #000000;text-anchor:start;font-family:monospace;font-style:normal;font-weight:normal" x="666" y="-177"> scriptRunId: string  PK</text>
    <text font-size="12.8" style="fill: #000000;text-anchor:start;font-family:monospace;font-style:normal;font-weight:normal" x="666" y="-161"> scriptFileName: string</text>
    <text font-size="12.8" style="fill: #000000;text-anchor:start;font-family:monospace;font-style:normal;font-weight:normal" x="666" y="-145"> logFilename: string</text>
    <text font-size="12.8" style="fill: #000000;text-anchor:start;font-family:monospace;font-style:normal;font-weight:normal" x="666" y="-129"> swiftVersion: string</text>
    <text font-size="12.8" style="fill: #000000;text-anchor:start;font-family:monospace;font-style:normal;font-weight:normal" x="666" y="-113"> cogVersion: string</text>
    <text font-size="12.8" style="fill: #000000;text-anchor:start;font-family:monospace;font-style:normal;font-weight:normal" x="666" y="-97"> finalState: string</text>
    <text font-size="12.8" style="fill: #000000;text-anchor:start;font-family:monospace;font-style:normal;font-weight:normal" x="666" y="-81"> startTime: timestamp</text>
    <text font-size="12.8" style="fill: #000000;text-anchor:start;font-family:monospace;font-style:normal;font-weight:normal" x="666" y="-65"> duration: integer</text>
    <text font-size="12.8" style="fill: #000000;text-anchor:start;font-family:monospace;font-style:normal;font-weight:normal" x="666" y="-49"> scriptHash: string</text>
    <text font-size="12.8" style="fill: #000000;text-anchor:start;font-family:monospace;font-style:normal;font-weight:normal" x="666" y="-33"> applicationCatalogHash: string</text>
    <text font-size="12.8" style="fill: #000000;text-anchor:start;font-family:monospace;font-style:normal;font-weight:normal" x="666" y="-17"> siteCatalogHash: string</text>
  </g>
  <g>
    <rect style="fill: #ffffff" x="678" y="72" width="217.9" height="28"/>
    <rect style="fill: none; fill-opacity:0; stroke-width: 2; stroke: #000000" x="678" y="72" width="217.9" height="28"/>
    <text font-size="16" style="fill: #000000;text-anchor:middle;font-family:sans-serif;font-style:normal;font-weight:700" x="786.95" y="91">FunctionCall</text>
    <rect style="fill: #ffffff" x="678" y="100" width="217.9" height="52"/>
    <rect style="fill: none; fill-opacity:0; stroke-width: 2; stroke: #000000" x="678" y="100" width="217.9" height="52"/>
    <text font-size="12.8" style="fill: #000000;text-anchor:start;font-family:monospace;font-style:normal;font-weight:normal" x="681" y="114"> functionCallId: string  PK</text>
    <text font-size="12.8" style="fill: #000000;text-anchor:start;font-family:monospace;font-style:normal;font-weight:normal" x="681" y="130"> type: string</text>
    <text font-size="12.8" style="fill: #000000;text-anchor:start;font-family:monospace;font-style:normal;font-weight:normal" x="681" y="146"> name: string</text>
  </g>
  <g>
    <rect style="fill: #ffffff" x="1232" y="72" width="187.1" height="28"/>
    <rect style="fill: none; fill-opacity:0; stroke-width: 2; stroke: #000000" x="1232" y="72" width="187.1" height="28"/>
    <text font-size="16" style="fill: #000000;text-anchor:middle;font-family:sans-serif;font-style:normal;font-weight:700" x="1325.55" y="91">Variable</text>
    <rect style="fill: #ffffff" x="1232" y="100" width="187.1" height="20"/>
    <rect style="fill: none; fill-opacity:0; stroke-width: 2; stroke: #000000" x="1232" y="100" width="187.1" height="20"/>
    <text font-size="12.8" style="fill: #000000;text-anchor:start;font-family:monospace;font-style:normal;font-weight:normal" x="1235" y="114"> variableId: string  PK</text>
  </g>
  <g>
    <polyline style="fill: none; fill-opacity:0; stroke-width: 2; stroke: #000000" points="895.9,142 959.602,142 959.602,110 1232,110 "/>
    <text font-size="12.7998" style="fill: #000000;text-anchor:start;font-family:monospace;font-style:normal;font-weight:normal" x="961.602" y="122">produces</text>
    <text font-size="12.7998" style="fill: #000000;text-anchor:start;font-family:monospace;font-style:normal;font-weight:normal" x="899.9" y="138">1</text>
    <text font-size="12.7998" style="fill: #000000;text-anchor:end;font-family:monospace;font-style:normal;font-weight:normal" x="1228" y="106">*</text>
  </g>
  <g>
    <polyline style="fill: none; fill-opacity:0; stroke-width: 2; stroke: #000000" points="895.9,86 958.204,86 958.204,86 1232,86 "/>
    <text font-size="12.7998" style="fill: #000000;text-anchor:middle;font-family:monospace;font-style:normal;font-weight:normal" x="958.204" y="82">consumes</text>
    <text font-size="12.7998" style="fill: #000000;text-anchor:start;font-family:monospace;font-style:normal;font-weight:normal" x="899.9" y="82">1</text>
    <text font-size="12.7998" style="fill: #000000;text-anchor:end;font-family:monospace;font-style:normal;font-weight:normal" x="1228" y="82">*</text>
  </g>
  <g>
    <rect style="fill: #ffffff" x="978" y="233" width="279.5" height="28"/>
    <rect style="fill: none; fill-opacity:0; stroke-width: 2; stroke: #000000" x="978" y="233" width="279.5" height="28"/>
    <text font-size="16" style="fill: #000000;text-anchor:middle;font-family:sans-serif;font-style:normal;font-weight:700" x="1117.75" y="252">ApplicationExecution</text>
    <rect style="fill: #ffffff" x="978" y="261" width="279.5" height="84"/>
    <rect style="fill: none; fill-opacity:0; stroke-width: 2; stroke: #000000" x="978" y="261" width="279.5" height="84"/>
    <text font-size="12.8" style="fill: #000000;text-anchor:start;font-family:monospace;font-style:normal;font-weight:normal" x="981" y="275"> applicationExecutionId: string  PK</text>
    <text font-size="12.8" style="fill: #000000;text-anchor:start;font-family:monospace;font-style:normal;font-weight:normal" x="981" y="291"> startTime: timestamp</text>
    <text font-size="12.8" style="fill: #000000;text-anchor:start;font-family:monospace;font-style:normal;font-weight:normal" x="981" y="307"> duration: integer</text>
    <text font-size="12.8" style="fill: #000000;text-anchor:start;font-family:monospace;font-style:normal;font-weight:normal" x="981" y="323"> finalState: string</text>
    <text font-size="12.8" style="fill: #000000;text-anchor:start;font-family:monospace;font-style:normal;font-weight:normal" x="981" y="339"> site: string</text>
  </g>
  <g>
    <rect style="fill: #ffffff" x="1321" y="217" width="202.5" height="28"/>
    <rect style="fill: none; fill-opacity:0; stroke-width: 2; stroke: #000000" x="1321" y="217" width="202.5" height="28"/>
    <text font-size="16" style="fill: #000000;text-anchor:middle;font-family:sans-serif;font-style:normal;font-weight:700" x="1422.25" y="236">RuntimeSnapshot</text>
    <rect style="fill: #ffffff" x="1321" y="245" width="202.5" height="100"/>
    <rect style="fill: none; fill-opacity:0; stroke-width: 2; stroke: #000000" x="1321" y="245" width="202.5" height="100"/>
    <text font-size="12.8" style="fill: #000000;text-anchor:start;font-family:monospace;font-style:normal;font-weight:normal" x="1324" y="259"> timestamp: timestamp  PK</text>
    <text font-size="12.8" style="fill: #000000;text-anchor:start;font-family:monospace;font-style:normal;font-weight:normal" x="1324" y="275"> cpuUsage: float</text>
    <text font-size="12.8" style="fill: #000000;text-anchor:start;font-family:monospace;font-style:normal;font-weight:normal" x="1324" y="291"> maxPhysMem: integer</text>
    <text font-size="12.8" style="fill: #000000;text-anchor:start;font-family:monospace;font-style:normal;font-weight:normal" x="1324" y="307"> maxVirtMem: integer</text>
    <text font-size="12.8" style="fill: #000000;text-anchor:start;font-family:monospace;font-style:normal;font-weight:normal" x="1324" y="323"> ioRead: integer</text>
    <text font-size="12.8" style="fill: #000000;text-anchor:start;font-family:monospace;font-style:normal;font-weight:normal" x="1324" y="339"> ioWrite: integer</text>
  </g>
  <g>
    <polyline style="fill: none; fill-opacity:0; stroke-width: 2; stroke: #000000" points="1282.67,287 1274.5,287 1274.5,287 1321,287 "/>
    <polygon style="fill: #ffffff" points="1257.5,287 1271.5,282.2 1285.5,287 1271.5,291.8 "/>
    <polygon style="fill: none; fill-opacity:0; stroke-width: 2; stroke: #000000" points="1257.5,287 1271.5,282.2 1285.5,287 1271.5,291.8 "/>
    <text font-size="12.7998" style="fill: #000000;text-anchor:middle;font-family:monospace;font-style:normal;font-weight:normal" x="1274.5" y="283"></text>
    <text font-size="12.7998" style="fill: #000000;text-anchor:start;font-family:monospace;font-style:normal;font-weight:normal" x="1289.5" y="283">1</text>
    <text font-size="12.7998" style="fill: #000000;text-anchor:end;font-family:monospace;font-style:normal;font-weight:normal" x="1317" y="283">*</text>
  </g>
  <g>
    <rect style="fill: #ffffff" x="675" y="233" width="223.7" height="28"/>
    <rect style="fill: none; fill-opacity:0; stroke-width: 2; stroke: #000000" x="675" y="233" width="223.7" height="28"/>
    <text font-size="16" style="fill: #000000;text-anchor:middle;font-family:sans-serif;font-style:normal;font-weight:700" x="786.85" y="252">ApplicationFunctionCall</text>
    <rect style="fill: #ffffff" x="675" y="261" width="223.7" height="68"/>
    <rect style="fill: none; fill-opacity:0; stroke-width: 2; stroke: #000000" x="675" y="261" width="223.7" height="68"/>
    <text font-size="12.8" style="fill: #000000;text-anchor:start;font-family:monospace;font-style:normal;font-weight:normal" x="678" y="275"> startTime: timestamp</text>
    <text font-size="12.8" style="fill: #000000;text-anchor:start;font-family:monospace;font-style:normal;font-weight:normal" x="678" y="291"> duration: integer</text>
    <text font-size="12.8" style="fill: #000000;text-anchor:start;font-family:monospace;font-style:normal;font-weight:normal" x="678" y="307"> finalState: string</text>
    <text font-size="12.8" style="fill: #000000;text-anchor:start;font-family:monospace;font-style:normal;font-weight:normal" x="678" y="323"> app_catalog_name: string</text>
  </g>
  <g>
    <polyline style="fill: none; fill-opacity:0; stroke-width: 2; stroke: #000000" points="786.95,170.236 786.95,216 786.85,216 786.85,233 "/>
    <polygon style="fill: #ffffff" points="794.95,170.236 786.95,154.236 778.95,170.236 "/>
    <polygon style="fill: none; fill-opacity:0; stroke-width: 2; stroke: #000000" points="794.95,170.236 786.95,154.236 778.95,170.236 "/>
  </g>
  <g>
    <polyline style="fill: none; fill-opacity:0; stroke-width: 2; stroke: #000000" points="923.872,287 945.35,287 945.35,287 978,287 "/>
    <polygon style="fill: #ffffff" points="898.7,287 912.7,282.2 926.7,287 912.7,291.8 "/>
    <polygon style="fill: none; fill-opacity:0; stroke-width: 2; stroke: #000000" points="898.7,287 912.7,282.2 926.7,287 912.7,291.8 "/>
    <text font-size="12.7998" style="fill: #000000;text-anchor:middle;font-family:monospace;font-style:normal;font-weight:normal" x="945.35" y="283"></text>
    <text font-size="12.7998" style="fill: #000000;text-anchor:start;font-family:monospace;font-style:normal;font-weight:normal" x="930.7" y="283">1</text>
    <text font-size="12.7998" style="fill: #000000;text-anchor:end;font-family:monospace;font-style:normal;font-weight:normal" x="974" y="283">*</text>
  </g>
  <g>
    <rect style="fill: #ffffff" x="1162" y="161" width="140.9" height="28"/>
    <rect style="fill: none; fill-opacity:0; stroke-width: 2; stroke: #000000" x="1162" y="161" width="140.9" height="28"/>
    <text font-size="16" style="fill: #000000;text-anchor:middle;font-family:sans-serif;font-style:normal;font-weight:700" x="1232.45" y="180">Mapped</text>
    <rect style="fill: #ffffff" x="1162" y="189" width="140.9" height="20"/>
    <rect style="fill: none; fill-opacity:0; stroke-width: 2; stroke: #000000" x="1162" y="189" width="140.9" height="20"/>
    <text font-size="12.8" style="fill: #000000;text-anchor:start;font-family:monospace;font-style:normal;font-weight:normal" x="1165" y="203"> fileName: string</text>
  </g>
  <g>
    <rect style="fill: #ffffff" x="1364" y="160" width="110.1" height="28"/>
    <rect style="fill: none; fill-opacity:0; stroke-width: 2; stroke: #000000" x="1364" y="160" width="110.1" height="28"/>
    <text font-size="16" style="fill: #000000;text-anchor:middle;font-family:sans-serif;font-style:normal;font-weight:700" x="1419.05" y="179">Primitive</text>
    <rect style="fill: #ffffff" x="1364" y="188" width="110.1" height="20"/>
    <rect style="fill: none; fill-opacity:0; stroke-width: 2; stroke: #000000" x="1364" y="188" width="110.1" height="20"/>
    <text font-size="12.8" style="fill: #000000;text-anchor:start;font-family:monospace;font-style:normal;font-weight:normal" x="1367" y="202"> value: value</text>
  </g>
  <g>
    <polyline style="fill: none; fill-opacity:0; stroke-width: 2; stroke: #000000" points="1232,138.236 1232,148.5 1232.45,148.5 1232.45,161 "/>
    <polygon style="fill: #ffffff" points="1240,138.236 1232,122.236 1224,138.236 "/>
    <polygon style="fill: none; fill-opacity:0; stroke-width: 2; stroke: #000000" points="1240,138.236 1232,122.236 1224,138.236 "/>
  </g>
  <g>
    <polyline style="fill: none; fill-opacity:0; stroke-width: 2; stroke: #000000" points="1419.1,138.236 1419.1,148 1419.05,148 1419.05,160 "/>
    <polygon style="fill: #ffffff" points="1427.1,138.236 1419.1,122.236 1411.1,138.236 "/>
    <polygon style="fill: none; fill-opacity:0; stroke-width: 2; stroke: #000000" points="1427.1,138.236 1419.1,122.236 1411.1,138.236 "/>
  </g>
  <g>
    <polyline style="fill: none; fill-opacity:0; stroke-width: 2; stroke: #000000" points="1419.1,72 1517.6,72 1517.6,120 1419.1,120 "/>
    <text font-size="12.7998" style="fill: #000000;text-anchor:start;font-family:monospace;font-style:normal;font-weight:normal" x="1519.6" y="92">contains</text>
    <text font-size="12.7998" style="fill: #000000;text-anchor:start;font-family:monospace;font-style:normal;font-weight:normal" x="1423.1" y="68"> container</text>
    <text font-size="12.7998" style="fill: #000000;text-anchor:start;font-family:monospace;font-style:normal;font-weight:normal" x="1423.1" y="84"></text>
    <text font-size="12.7998" style="fill: #000000;text-anchor:start;font-family:monospace;font-style:normal;font-weight:normal" x="1423.1" y="116"> containee</text>
    <text font-size="12.7998" style="fill: #000000;text-anchor:start;font-family:monospace;font-style:normal;font-weight:normal" x="1423.1" y="132"></text>
  </g>
  <g>
    <rect style="fill: #ffffff" x="965.602" y="-21.5" width="181" height="28"/>
    <rect style="fill: none; fill-opacity:0; stroke-width: 2; stroke: #000000" x="965.602" y="-21.5" width="181" height="28"/>
    <text font-size="16" style="fill: #000000;text-anchor:middle;font-family:sans-serif;font-style:normal;font-weight:700" x="1056.1" y="-2.5">ConsumesProperty</text>
    <rect style="fill: #ffffff" x="965.602" y="6.5" width="181" height="20"/>
    <rect style="fill: none; fill-opacity:0; stroke-width: 2; stroke: #000000" x="965.602" y="6.5" width="181" height="20"/>
    <text font-size="12.8" style="fill: #000000;text-anchor:start;font-family:monospace;font-style:normal;font-weight:normal" x="968.602" y="20.5"> parameter : string</text>
  </g>
  <g>
    <rect style="fill: #ffffff" x="969.802" y="161.3" width="172.3" height="28"/>
    <rect style="fill: none; fill-opacity:0; stroke-width: 2; stroke: #000000" x="969.802" y="161.3" width="172.3" height="28"/>
    <text font-size="16" style="fill: #000000;text-anchor:middle;font-family:sans-serif;font-style:normal;font-weight:700" x="1055.95" y="180.3">ProducesProperty</text>
    <rect style="fill: #ffffff" x="969.802" y="189.3" width="172.3" height="20"/>
    <rect style="fill: none; fill-opacity:0; stroke-width: 2; stroke: #000000" x="969.802" y="189.3" width="172.3" height="20"/>
    <text font-size="12.8" style="fill: #000000;text-anchor:start;font-family:monospace;font-style:normal;font-weight:normal" x="972.802" y="203.3"> parameter : string</text>
  </g>
  <line style="fill: none; fill-opacity:0; stroke-width: 2; stroke: #000000" x1="1056.1" y1="26.5" x2="1057.2" y2="85.5"/>
  <line style="fill: none; fill-opacity:0; stroke-width: 2; stroke: #000000" x1="1055.95" y1="161.3" x2="1056.2" y2="109.5"/>
  <g>
    <rect style="fill: #ffffff" x="688" y="-351.5" width="198.8" height="28"/>
    <rect style="fill: none; fill-opacity:0; stroke-width: 2; stroke: #000000" x="688" y="-351.5" width="198.8" height="28"/>
    <text font-size="16" style="fill: #000000;text-anchor:middle;font-family:sans-serif;font-style:normal;font-weight:700" x="787.4" y="-332.5">ScriptRunAnnotation</text>
    <rect style="fill: #ffffff" x="688" y="-323.5" width="198.8" height="36"/>
    <rect style="fill: none; fill-opacity:0; stroke-width: 2; stroke: #000000" x="688" y="-323.5" width="198.8" height="36"/>
    <text font-size="12.8" style="fill: #000000;text-anchor:start;font-family:monospace;font-style:normal;font-weight:normal" x="691" y="-309.5"> key : string  PK</text>
    <text font-size="12.8" style="fill: #000000;text-anchor:start;font-family:monospace;font-style:normal;font-weight:normal" x="691" y="-293.5"> value : value</text>
  </g>
  <g>
    <rect style="fill: #ffffff" x="359.2" y="74.3" width="221.75" height="28"/>
    <rect style="fill: none; fill-opacity:0; stroke-width: 2; stroke: #000000" x="359.2" y="74.3" width="221.75" height="28"/>
    <text font-size="16" style="fill: #000000;text-anchor:middle;font-family:sans-serif;font-style:normal;font-weight:700" x="470.075" y="93.3">FunctionCallAnnotation</text>
    <rect style="fill: #ffffff" x="359.2" y="102.3" width="221.75" height="36"/>
    <rect style="fill: none; fill-opacity:0; stroke-width: 2; stroke: #000000" x="359.2" y="102.3" width="221.75" height="36"/>
    <text font-size="12.8" style="fill: #000000;text-anchor:start;font-family:monospace;font-style:normal;font-weight:normal" x="362.2" y="116.3"> key : string  PK</text>
    <text font-size="12.8" style="fill: #000000;text-anchor:start;font-family:monospace;font-style:normal;font-weight:normal" x="362.2" y="132.3"> value : value</text>
  </g>
  <g>
    <rect style="fill: #ffffff" x="1233.2" y="-58.7" width="184.55" height="28"/>
    <rect style="fill: none; fill-opacity:0; stroke-width: 2; stroke: #000000" x="1233.2" y="-58.7" width="184.55" height="28"/>
    <text font-size="16" style="fill: #000000;text-anchor:middle;font-family:sans-serif;font-style:normal;font-weight:700" x="1325.47" y="-39.7">VariableAnnotation</text>
    <rect style="fill: #ffffff" x="1233.2" y="-30.7" width="184.55" height="36"/>
    <rect style="fill: none; fill-opacity:0; stroke-width: 2; stroke: #000000" x="1233.2" y="-30.7" width="184.55" height="36"/>
    <text font-size="12.8" style="fill: #000000;text-anchor:start;font-family:monospace;font-style:normal;font-weight:normal" x="1236.2" y="-16.7"> key : string  PK</text>
    <text font-size="12.8" style="fill: #000000;text-anchor:start;font-family:monospace;font-style:normal;font-weight:normal" x="1236.2" y="-0.7"> value : value</text>
  </g>
  <g>
    <polyline style="fill: none; fill-opacity:0; stroke-width: 2; stroke: #000000" points="787.35,-244.172 787.35,-266.5 787.35,-266.5 787.35,-287.5 "/>
    <polygon style="fill: #ffffff" points="787.35,-219 782.55,-233 787.35,-247 792.15,-233 "/>
    <polygon style="fill: none; fill-opacity:0; stroke-width: 2; stroke: #000000" points="787.35,-219 782.55,-233 787.35,-247 792.15,-233 "/>
    <text font-size="12.7998" style="fill: #000000;text-anchor:start;font-family:monospace;font-style:normal;font-weight:normal" x="789.35" y="-270.5"></text>
    <text font-size="12.7998" style="fill: #000000;text-anchor:start;font-family:monospace;font-style:normal;font-weight:normal" x="798.35" y="-223">1</text>
    <text font-size="12.7998" style="fill: #000000;text-anchor:start;font-family:monospace;font-style:normal;font-weight:normal" x="791.35" y="-275.5">*</text>
  </g>
  <g>
    <polyline style="fill: none; fill-opacity:0; stroke-width: 2; stroke: #000000" points="651.822,112 621.972,112 621.972,112.3 580.95,112.3 "/>
    <polygon style="fill: #ffffff" points="676.993,112 662.993,116.8 648.993,112 662.993,107.2 "/>
    <polygon style="fill: none; fill-opacity:0; stroke-width: 2; stroke: #000000" points="676.993,112 662.993,116.8 648.993,112 662.993,107.2 "/>
    <text font-size="12.7998" style="fill: #000000;text-anchor:start;font-family:monospace;font-style:normal;font-weight:normal" x="623.972" y="108.15"></text>
    <text font-size="12.7998" style="fill: #000000;text-anchor:end;font-family:monospace;font-style:normal;font-weight:normal" x="644.993" y="108">1</text>
    <text font-size="12.7998" style="fill: #000000;text-anchor:start;font-family:monospace;font-style:normal;font-weight:normal" x="584.95" y="108.3">*</text>
  </g>
  <g>
    <polyline style="fill: none; fill-opacity:0; stroke-width: 2; stroke: #000000" points="1325.55,46.8284 1325.55,31.65 1325.48,31.65 1325.48,5.3 "/>
    <polygon style="fill: #ffffff" points="1325.55,72 1320.75,58 1325.55,44 1330.35,58 "/>
    <polygon style="fill: none; fill-opacity:0; stroke-width: 2; stroke: #000000" points="1325.55,72 1320.75,58 1325.55,44 1330.35,58 "/>
    <text font-size="12.7998" style="fill: #000000;text-anchor:middle;font-family:monospace;font-style:normal;font-weight:normal" x="1325.51" y="27.65"></text>
    <text font-size="12.7998" style="fill: #000000;text-anchor:start;font-family:monospace;font-style:normal;font-weight:normal" x="1336.55" y="68">1</text>
    <text font-size="12.7998" style="fill: #000000;text-anchor:start;font-family:monospace;font-style:normal;font-weight:normal" x="1329.48" y="17.3">*</text>
  </g>
  <g>
    <rect style="fill: #ffffff" x="990" y="-154.75" width="179.4" height="28"/>
    <rect style="fill: none; fill-opacity:0; stroke-width: 2; stroke: #000000" x="990" y="-154.75" width="179.4" height="28"/>
    <text font-size="16" style="fill: #000000;text-anchor:middle;font-family:sans-serif;font-style:normal;font-weight:700" x="1079.7" y="-135.75">Script</text>
    <rect style="fill: #ffffff" x="990" y="-126.75" width="179.4" height="36"/>
    <rect style="fill: none; fill-opacity:0; stroke-width: 2; stroke: #000000" x="990" y="-126.75" width="179.4" height="36"/>
    <text font-size="12.8" style="fill: #000000;text-anchor:start;font-family:monospace;font-style:normal;font-weight:normal" x="993" y="-112.75"> hashValue: string  PK</text>
    <text font-size="12.8" style="fill: #000000;text-anchor:start;font-family:monospace;font-style:normal;font-weight:normal" x="993" y="-96.75"> sourceCode: text</text>
  </g>
  <g>
    <polyline style="fill: none; fill-opacity:0; stroke-width: 2; stroke: #000000" points="936.872,-117 943.85,-117 943.85,-116.75 990,-116.75 "/>
    <polygon style="fill: #000000" points="911.7,-117 925.7,-121.8 939.7,-117 925.7,-112.2 "/>
    <polygon style="fill: none; fill-opacity:0; stroke-width: 2; stroke: #000000" points="911.7,-117 925.7,-121.8 939.7,-117 925.7,-112.2 "/>
    <text font-size="12.7998" style="fill: #000000;text-anchor:start;font-family:monospace;font-style:normal;font-weight:normal" x="945.85" y="-120.875"></text>
    <text font-size="12.7998" style="fill: #000000;text-anchor:start;font-family:monospace;font-style:normal;font-weight:normal" x="943.7" y="-121">*</text>
    <text font-size="12.7998" style="fill: #000000;text-anchor:end;font-family:monospace;font-style:normal;font-weight:normal" x="986" y="-120.75">1</text>
  </g>
  <g>
    <rect style="fill: #ffffff" x="400" y="-202.75" width="181.1" height="28"/>
    <rect style="fill: none; fill-opacity:0; stroke-width: 2; stroke: #000000" x="400" y="-202.75" width="181.1" height="28"/>
    <text font-size="16" style="fill: #000000;text-anchor:middle;font-family:sans-serif;font-style:normal;font-weight:700" x="490.55" y="-183.75">ApplicationCatalog</text>
    <rect style="fill: #ffffff" x="400" y="-174.75" width="181.1" height="36"/>
    <rect style="fill: none; fill-opacity:0; stroke-width: 2; stroke: #000000" x="400" y="-174.75" width="181.1" height="36"/>
    <text font-size="12.8" style="fill: #000000;text-anchor:start;font-family:monospace;font-style:normal;font-weight:normal" x="403" y="-160.75"> hashValue: string  PK</text>
    <text font-size="12.8" style="fill: #000000;text-anchor:start;font-family:monospace;font-style:normal;font-weight:normal" x="403" y="-144.75"> catalogEntries: text</text>
  </g>
  <g>
    <rect style="fill: #ffffff" x="401.5" y="-90.25" width="179.4" height="28"/>
    <rect style="fill: none; fill-opacity:0; stroke-width: 2; stroke: #000000" x="401.5" y="-90.25" width="179.4" height="28"/>
    <text font-size="16" style="fill: #000000;text-anchor:middle;font-family:sans-serif;font-style:normal;font-weight:700" x="491.2" y="-71.25">SiteCatalog</text>
    <rect style="fill: #ffffff" x="401.5" y="-62.25" width="179.4" height="36"/>
    <rect style="fill: none; fill-opacity:0; stroke-width: 2; stroke: #000000" x="401.5" y="-62.25" width="179.4" height="36"/>
    <text font-size="12.8" style="fill: #000000;text-anchor:start;font-family:monospace;font-style:normal;font-weight:normal" x="404.5" y="-48.25"> hashValue: string  PK</text>
    <text font-size="12.8" style="fill: #000000;text-anchor:start;font-family:monospace;font-style:normal;font-weight:normal" x="404.5" y="-32.25"> catalogEntries: text</text>
  </g>
  <g>
    <polyline style="fill: none; fill-opacity:0; stroke-width: 2; stroke: #000000" points="637.828,-165 602,-165 602,-164.75 581,-164.75 "/>
    <polygon style="fill: #000000" points="663,-165 649,-160.2 635,-165 649,-169.8 "/>
    <polygon style="fill: none; fill-opacity:0; stroke-width: 2; stroke: #000000" points="663,-165 649,-160.2 635,-165 649,-169.8 "/>
    <text font-size="12.7998" style="fill: #000000;text-anchor:start;font-family:monospace;font-style:normal;font-weight:normal" x="604" y="-168.875"></text>
    <text font-size="12.7998" style="fill: #000000;text-anchor:end;font-family:monospace;font-style:normal;font-weight:normal" x="631" y="-169">*</text>
    <text font-size="12.7998" style="fill: #000000;text-anchor:start;font-family:monospace;font-style:normal;font-weight:normal" x="585" y="-168.75">1</text>
  </g>
  <g>
    <polyline style="fill: none; fill-opacity:0; stroke-width: 2; stroke: #000000" points="637.828,-53 607,-53 607,-52.25 580.9,-52.25 "/>
    <polygon style="fill: #000000" points="663,-53 649,-48.2 635,-53 649,-57.8 "/>
    <polygon style="fill: none; fill-opacity:0; stroke-width: 2; stroke: #000000" points="663,-53 649,-48.2 635,-53 649,-57.8 "/>
    <text font-size="12.7998" style="fill: #000000;text-anchor:start;font-family:monospace;font-style:normal;font-weight:normal" x="609" y="-56.625"></text>
    <text font-size="12.7998" style="fill: #000000;text-anchor:end;font-family:monospace;font-style:normal;font-weight:normal" x="631" y="-57">*</text>
    <text font-size="12.7998" style="fill: #000000;text-anchor:start;font-family:monospace;font-style:normal;font-weight:normal" x="584.9" y="-56.25">1</text>
  </g>
  <g>
    <polyline style="fill: none; fill-opacity:0; stroke-width: 2; stroke: #000000" points="787.35,14.1716 787.35,37.5 786.95,37.5 786.95,72 "/>
    <polygon style="fill: #ffffff" points="787.35,-11 792.15,3 787.35,17 782.55,3 "/>
    <polygon style="fill: none; fill-opacity:0; stroke-width: 2; stroke: #000000" points="787.35,-11 792.15,3 787.35,17 782.55,3 "/>
    <text font-size="12.7998" style="fill: #000000;text-anchor:middle;font-family:monospace;font-style:normal;font-weight:normal" x="787.15" y="33.5"></text>
    <text font-size="12.7998" style="fill: #000000;text-anchor:start;font-family:monospace;font-style:normal;font-weight:normal" x="798.35" y="1">1</text>
    <text font-size="12.7998" style="fill: #000000;text-anchor:start;font-family:monospace;font-style:normal;font-weight:normal" x="790.95" y="68">*</text>
  </g>
</svg>
